# xmcd
#
# Track frame offsets: 
#        150
#        10089
#        21449
#        35707
#        59227
#        82537
#        102753
#        113861
#        132147
#        148936
#        168253
#        182614
#        193977
#        207265
#
# Disc length: 2975 seconds
#
# Revision: 0
# Processed by: cddbd v1.4PL0 Copyright (c) Steve Scherf et al.
# Submitted via: ExactAudioCopy v0.95a2
#
DISCID=c30b9d0e
DTITLE=Henri Gibson Band - Band for hire
DYEAR=2003
DGENRE=Rock and Roll
TTITLE0=Tush
TTITLE1=Mojo workin'
TTITLE2=Highway to hell
TTITLE3=Jersey girl
TTITLE4=Money for nothing
TTITLE5=Lean on me
TTITLE6=Can't buy me love
TTITLE7=Fever
TTITLE8=I did not have sex with that woman
TTITLE9=Snowshuffle
TTITLE10=Rock'n roll
TTITLE11=You're still here
TTITLE12=What if I told you
TTITLE13=How can I reach you
EXTD=
EXTT0=
EXTT1=
EXTT2=
EXTT3=
EXTT4=
EXTT5=
EXTT6=
EXTT7=
EXTT8=
EXTT9=
EXTT10=
EXTT11=
EXTT12=
EXTT13=
PLAYORDER=
